<svg xmlns="http://www.w3.org/2000/svg" width="41.215" height="42.102" viewBox="0 0 41.215 42.102">
  <g id="dollar_1_" data-name="dollar (1)" transform="translate(-1.947 -1.504)">
    <g id="Group_1988" data-name="Group 1988">
      <g id="Group_2003" data-name="Group 2003">
        <g id="win" transform="translate(1.922 1.504)">
          <path id="Path_5670" data-name="Path 5670" d="M.025,39.3l.546,1.228,19.584-8.12,3.412.409L24.8,36.574l-1.638,1.57A1.967,1.967,0,0,0,22.68,40.4l.682,1.706L34.69,37.666l-.614-1.638a1.929,1.929,0,0,0-1.91-1.3H29.913L28.685,31.8l3-1.5a2.051,2.051,0,0,0,1.024-2.525l-3.889-10.44A2.1,2.1,0,0,0,26.16,16.1a.067.067,0,0,0-.068.068L23.226,17.4l-.409-1.024,1.57-1.842a8.03,8.03,0,0,0,1.979-4.367l1.979-2.388a3.584,3.584,0,0,0-.478-5.05,5.711,5.711,0,0,0-.819-.546,3.391,3.391,0,0,0-2.32-.2l-.2-.614A1.973,1.973,0,0,0,21.93.136L7.531,5.322A2,2,0,0,0,6.3,7.915v.068l.341.887a3.781,3.781,0,0,0-1.979,4.64A3.881,3.881,0,0,0,7.8,16.035l3.207.341a8.886,8.886,0,0,0,4.435,1.706l2.252.2.409,1.024a2.032,2.032,0,0,0-.955,1.365L16.675,23,.025,29.751l.478,1.3,9.553-3.821,2.32,6.96Zm32.685-2.866.137.409-8.735,3.48-.2-.409a.946.946,0,0,1,.137-.75l2.32-2.184,2.934-.955h2.729a.685.685,0,0,1,.682.409Zm-4.3-1.638-2.457.819-.887-2.593a1.517,1.517,0,0,0,1.092-.2l1.16-.546ZM26.569,17.2a.677.677,0,0,1,.887.341L28,18.969l-3.344,1.092.409,1.3,3.344-1.092.819,2.184-3.207,1.092.409,1.3,3.275-1.092.819,2.183-3.139,1.024.409,1.3L31,27.158l.341.887a.6.6,0,0,1-.341.819l-5.391,2.661a.865.865,0,0,1-.409.068l-4.64-.546L18.04,23.473l.478-2.525a.722.722,0,0,1,.409-.478ZM26.5,3.411a2.261,2.261,0,0,1,1.16,2.934,2.391,2.391,0,0,1-.341.546L26.5,7.915a10.2,10.2,0,0,0-.409-1.979L25.2,3.275a2.727,2.727,0,0,1,1.3.136ZM6.03,13.169a2.351,2.351,0,0,1,1.16-2.934l.955,2.32a9.886,9.886,0,0,0,1.365,2.32l-1.433-.137A2.282,2.282,0,0,1,6.03,13.169Zm9.69,3.616a7.457,7.457,0,0,1-6.278-4.708l-1.774-4.5a.677.677,0,0,1,.341-.887L22.407,1.5a.753.753,0,0,1,.546,0,.7.7,0,0,1,.341.409l1.5,4.5a7.5,7.5,0,0,1-1.433,7.233L21.247,16.1l.614,1.638L19.4,18.764l-.682-1.706ZM11.353,26.68l1.569-.614,1.706,5.186,1.3-.409L14.151,25.52l2.729-1.092L19.2,31.32l-5.527,2.32Zm0,0" fill="#55dffc"/>
          <path id="Path_5671" data-name="Path 5671" d="M33.734,11.941v.682H35.1v-.682a3.379,3.379,0,0,1,3.412-3.412V7.164A3.379,3.379,0,0,1,35.1,3.752V3.07H33.734v.682a3.378,3.378,0,0,1-3.412,3.412V8.529A3.379,3.379,0,0,1,33.734,11.941Zm.682-5.732a4.7,4.7,0,0,0,1.638,1.638,4.706,4.706,0,0,0-1.638,1.638,4.706,4.706,0,0,0-1.638-1.638A4.7,4.7,0,0,0,34.417,6.209Zm0,0" fill="#55dffc"/>
          <path id="Path_5672" data-name="Path 5672" d="M3.71,25.588v.682H5.075v-.682a3.379,3.379,0,0,1,3.412-3.412V20.812A3.379,3.379,0,0,1,5.075,17.4v-.682H3.71V17.4A3.378,3.378,0,0,1,.3,20.812v1.365A3.379,3.379,0,0,1,3.71,25.588Zm.682-5.732A4.7,4.7,0,0,0,6.03,21.494a4.706,4.706,0,0,0-1.638,1.638,4.706,4.706,0,0,0-1.638-1.638,4.7,4.7,0,0,0,1.638-1.638Zm0,0" fill="#55dffc"/>
          <path id="Path_5673" data-name="Path 5673" d="M37.829,17.4v-.682H36.464V17.4a3.378,3.378,0,0,1-3.412,3.412v1.365a3.379,3.379,0,0,1,3.412,3.412v.682h1.365v-.682a3.379,3.379,0,0,1,3.412-3.412V20.812A3.379,3.379,0,0,1,37.829,17.4Zm-.682,5.732a4.706,4.706,0,0,0-1.638-1.638,4.7,4.7,0,0,0,1.638-1.638,4.7,4.7,0,0,0,1.638,1.638A4.706,4.706,0,0,0,37.146,23.132Zm0,0" fill="#55dffc"/>
          <path id="Path_5674" data-name="Path 5674" d="M20.292,12.146l.955.955c3.753-3.753.273-9.485.068-9.69l-1.16.751c.068,0,3.139,4.981.137,7.984Zm0,0" fill="#55dffc"/>
        </g>
      </g>
    </g>
  </g>
</svg>
